<svg width="224" height="24" viewBox="0 0 224 24" fill="none" xmlns="http://www.w3.org/2000/svg">
<path d="M22.5056 9.07985H16.0722C16.0265 8.54753 15.9049 8.06464 15.7072 7.63118C15.517 7.19772 15.2509 6.8251 14.9087 6.51331C14.5741 6.19392 14.1672 5.95057 13.6881 5.78327C13.2091 5.60837 12.6653 5.52091 12.057 5.52091C10.9923 5.52091 10.0912 5.77947 9.35354 6.29658C8.6235 6.81369 8.06837 7.55513 7.68814 8.52091C7.31552 9.48669 7.12921 10.6464 7.12921 12C7.12921 13.4297 7.31932 14.6274 7.69955 15.5932C8.08738 16.5513 8.64632 17.2738 9.37635 17.7605C10.1064 18.2395 10.9847 18.4791 12.0113 18.4791C12.5969 18.4791 13.1216 18.4068 13.5855 18.2624C14.0494 18.1103 14.4524 17.8935 14.7946 17.6122C15.1368 17.3308 15.4144 16.9924 15.6273 16.597C15.8478 16.1939 15.9961 15.7414 16.0722 15.2395L22.5056 15.2852C22.4296 16.2738 22.152 17.2814 21.6729 18.308C21.1938 19.327 20.5132 20.27 19.6311 21.1369C18.7566 21.9962 17.6729 22.6882 16.3802 23.2129C15.0874 23.7376 13.5855 24 11.8745 24C9.72997 24 7.80601 23.5399 6.10259 22.6198C4.40677 21.6996 3.06457 20.346 2.07597 18.5589C1.09499 16.7719 0.604492 14.5856 0.604492 12C0.604492 9.39924 1.10639 7.20913 2.1102 5.42966C3.114 3.64259 4.46761 2.29278 6.17103 1.38023C7.87445 0.460076 9.77559 0 11.8745 0C13.3497 0 14.7072 0.201521 15.9467 0.604562C17.1862 1.0076 18.2737 1.59696 19.2091 2.37262C20.1444 3.14068 20.8973 4.08745 21.4676 5.21293C22.038 6.3384 22.384 7.62738 22.5056 9.07985Z" fill="#333333"/>
<path d="M34.3971 24C32.496 24 30.8686 23.6236 29.515 22.8707C28.1614 22.1103 27.1234 21.0532 26.401 19.6996C25.6785 18.3384 25.3173 16.7605 25.3173 14.9658C25.3173 13.1711 25.6785 11.597 26.401 10.2433C27.1234 8.88213 28.1614 7.8251 29.515 7.07224C30.8686 6.31179 32.496 5.93156 34.3971 5.93156C36.2983 5.93156 37.9257 6.31179 39.2793 7.07224C40.6329 7.8251 41.6709 8.88213 42.3933 10.2433C43.1158 11.597 43.477 13.1711 43.477 14.9658C43.477 16.7605 43.1158 18.3384 42.3933 19.6996C41.6709 21.0532 40.6329 22.1103 39.2793 22.8707C37.9257 23.6236 36.2983 24 34.3971 24ZM34.4428 19.346C34.9751 19.346 35.4352 19.1673 35.823 18.8099C36.2108 18.4525 36.5112 17.943 36.7241 17.2814C36.9371 16.6198 37.0435 15.8327 37.0435 14.9202C37.0435 14 36.9371 13.2129 36.7241 12.5589C36.5112 11.8973 36.2108 11.3878 35.823 11.0304C35.4352 10.673 34.9751 10.4943 34.4428 10.4943C33.88 10.4943 33.3972 10.673 32.9941 11.0304C32.5911 11.3878 32.2831 11.8973 32.0702 12.5589C31.8572 13.2129 31.7508 14 31.7508 14.9202C31.7508 15.8327 31.8572 16.6198 32.0702 17.2814C32.2831 17.943 32.5911 18.4525 32.9941 18.8099C33.3972 19.1673 33.88 19.346 34.4428 19.346Z" fill="#333333"/>
<path d="M52.8105 13.8251V23.6806H46.514V6.1597H52.4911V9.49049H52.6736C53.0539 8.38023 53.7231 7.50951 54.6813 6.87833C55.647 6.24715 56.7725 5.93156 58.0577 5.93156C59.2972 5.93156 60.3733 6.21673 61.2858 6.78707C62.206 7.34981 62.917 8.12548 63.4189 9.11407C63.9284 10.1027 64.1794 11.2319 64.1717 12.5019V23.6806H57.8752V13.8251C57.8828 12.9582 57.6622 12.2776 57.2136 11.7833C56.7725 11.289 56.1565 11.0418 55.3657 11.0418C54.8486 11.0418 54.3961 11.1559 54.0082 11.384C53.628 11.6046 53.3352 11.924 53.1299 12.3422C52.9246 12.7529 52.8181 13.2471 52.8105 13.8251Z" fill="#333333"/>
<path d="M78.2106 6.1597V10.7224H66.6669V6.1597H78.2106ZM68.9026 1.96198H75.1992V18.0456C75.1992 18.289 75.241 18.4943 75.3247 18.6616C75.4083 18.8213 75.5376 18.943 75.7125 19.0266C75.8874 19.1027 76.1117 19.1407 76.3855 19.1407C76.5756 19.1407 76.7962 19.1179 77.0471 19.0722C77.3057 19.0266 77.4958 18.9886 77.6174 18.9582L78.53 23.384C78.2486 23.4677 77.8456 23.5703 77.3209 23.692C76.8038 23.8137 76.1878 23.8935 75.473 23.9316C74.0281 24.0076 72.8152 23.8593 71.8342 23.4867C70.8532 23.1065 70.1155 22.5095 69.6212 21.6958C69.127 20.8821 68.8874 19.8631 68.9026 18.6388V1.96198Z" fill="#333333"/>
<path d="M89.469 24C87.5983 24 85.9862 23.6426 84.6325 22.9278C83.2865 22.2053 82.2485 21.1711 81.5185 19.8251C80.796 18.4715 80.4348 16.8517 80.4348 14.9658C80.4348 13.1559 80.7998 11.5741 81.5299 10.2205C82.2599 8.86692 83.2903 7.81369 84.6211 7.06084C85.9519 6.30799 87.5223 5.93156 89.3322 5.93156C90.6553 5.93156 91.8531 6.13688 92.9253 6.54753C93.9976 6.95818 94.9139 7.55513 95.6744 8.3384C96.4348 9.11407 97.0204 10.057 97.431 11.1673C97.8417 12.2776 98.047 13.5285 98.047 14.9202V16.3802H82.3968V12.9125H92.2523C92.2447 12.4106 92.1154 11.9696 91.8645 11.5894C91.6211 11.2015 91.2903 10.9011 90.8721 10.6882C90.4614 10.4677 89.9938 10.3574 89.469 10.3574C88.9595 10.3574 88.4919 10.4677 88.066 10.6882C87.6401 10.9011 87.2979 11.1977 87.0394 11.5779C86.7884 11.9582 86.6553 12.403 86.6401 12.9125V16.654C86.6401 17.2167 86.758 17.7186 86.9938 18.1597C87.2295 18.6008 87.5679 18.9468 88.009 19.1977C88.45 19.4487 88.9823 19.5741 89.6059 19.5741C90.0394 19.5741 90.4348 19.5133 90.7922 19.3916C91.1573 19.27 91.469 19.0951 91.7276 18.8669C91.9862 18.6312 92.1763 18.3498 92.2979 18.0228H98.047C97.8493 19.2395 97.3816 20.2966 96.6439 21.1939C95.9063 22.0837 94.9291 22.7757 93.7124 23.27C92.5033 23.7567 91.0888 24 89.469 24Z" fill="#333333"/>
<path d="M107.395 13.8251V23.6806H101.098V6.1597H107.075V9.49049H107.258C107.638 8.38023 108.307 7.50951 109.266 6.87833C110.231 6.24715 111.357 5.93156 112.642 5.93156C113.881 5.93156 114.958 6.21673 115.87 6.78707C116.79 7.34981 117.501 8.12548 118.003 9.11407C118.513 10.1027 118.764 11.2319 118.756 12.5019V23.6806H112.459V13.8251C112.467 12.9582 112.246 12.2776 111.798 11.7833C111.357 11.289 110.741 11.0418 109.95 11.0418C109.433 11.0418 108.98 11.1559 108.592 11.384C108.212 11.6046 107.919 11.924 107.714 12.3422C107.509 12.7529 107.402 13.2471 107.395 13.8251Z" fill="#333333"/>
<path d="M132.795 6.1597V10.7224H121.251V6.1597H132.795ZM123.487 1.96198H129.783V18.0456C129.783 18.289 129.825 18.4943 129.909 18.6616C129.993 18.8213 130.122 18.943 130.297 19.0266C130.472 19.1027 130.696 19.1407 130.97 19.1407C131.16 19.1407 131.38 19.1179 131.631 19.0722C131.89 19.0266 132.08 18.9886 132.202 18.9582L133.114 23.384C132.833 23.4677 132.43 23.5703 131.905 23.692C131.388 23.8137 130.772 23.8935 130.057 23.9316C128.612 24.0076 127.399 23.8593 126.418 23.4867C125.437 23.1065 124.7 22.5095 124.205 21.6958C123.711 20.8821 123.472 19.8631 123.487 18.6388V1.96198Z" fill="#333333"/>
<path d="M142.636 23.6806V0.319392H152.72C154.453 0.319392 155.97 0.634981 157.271 1.26616C158.571 1.89734 159.583 2.80608 160.305 3.9924C161.027 5.17871 161.389 6.60076 161.389 8.25856C161.389 9.93156 161.016 11.3422 160.271 12.4905C159.533 13.6388 158.495 14.5057 157.157 15.0913C155.826 15.6768 154.271 15.9696 152.491 15.9696H146.469V11.0418H151.214C151.959 11.0418 152.594 10.9506 153.119 10.7681C153.651 10.5779 154.058 10.2776 154.339 9.86692C154.628 9.45627 154.773 8.92015 154.773 8.25856C154.773 7.58935 154.628 7.04563 154.339 6.62738C154.058 6.20152 153.651 5.88973 153.119 5.69201C152.594 5.48669 151.959 5.38403 151.214 5.38403H148.978V23.6806H142.636ZM156.324 12.9582L162.164 23.6806H155.275L149.571 12.9582H156.324Z" fill="url(#paint0_linear_237_155)"/>
<path d="M169.547 23.9544C168.429 23.9544 167.441 23.7719 166.582 23.4068C165.73 23.0342 165.061 22.4715 164.574 21.7186C164.087 20.9658 163.844 20.0076 163.844 18.8441C163.844 17.8859 164.007 17.0684 164.334 16.3916C164.661 15.7072 165.118 15.1483 165.703 14.7148C166.289 14.2814 166.969 13.9506 167.745 13.7224C168.528 13.4943 169.372 13.346 170.277 13.2776C171.258 13.2015 172.045 13.1103 172.639 13.0038C173.239 12.8897 173.673 12.7338 173.939 12.5361C174.205 12.3308 174.338 12.0608 174.338 11.7262V11.6806C174.338 11.2243 174.163 10.8745 173.814 10.6312C173.464 10.3878 173.015 10.2662 172.467 10.2662C171.867 10.2662 171.376 10.3992 170.996 10.6654C170.623 10.924 170.399 11.3232 170.323 11.8631H164.528C164.604 10.7985 164.943 9.81749 165.544 8.92015C166.152 8.01521 167.038 7.29278 168.201 6.75285C169.365 6.20532 170.817 5.93156 172.559 5.93156C173.814 5.93156 174.939 6.07985 175.935 6.37643C176.931 6.6654 177.779 7.07224 178.479 7.59696C179.179 8.11407 179.711 8.72243 180.076 9.42205C180.448 10.1141 180.635 10.8669 180.635 11.6806V23.6806H174.749V21.2167H174.612C174.262 21.8707 173.836 22.3992 173.334 22.8023C172.84 23.2053 172.274 23.4981 171.635 23.6806C171.004 23.8631 170.308 23.9544 169.547 23.9544ZM171.601 19.9848C172.08 19.9848 172.528 19.8859 172.947 19.6882C173.372 19.4905 173.718 19.2053 173.985 18.8327C174.251 18.4601 174.384 18.0076 174.384 17.4753V16.0152C174.217 16.0837 174.038 16.1483 173.848 16.2091C173.665 16.27 173.467 16.327 173.255 16.3802C173.049 16.4335 172.829 16.4829 172.593 16.5285C172.365 16.5741 172.125 16.616 171.874 16.654C171.388 16.73 170.988 16.8555 170.677 17.0304C170.372 17.1977 170.144 17.4068 169.992 17.6578C169.848 17.9011 169.775 18.1749 169.775 18.4791C169.775 18.9658 169.947 19.3384 170.289 19.597C170.631 19.8555 171.068 19.9848 171.601 19.9848Z" fill="url(#paint1_linear_237_155)"/>
<path d="M190.422 13.8251V23.6806H184.125V6.1597H190.102V9.49049H190.285C190.665 8.38023 191.334 7.50951 192.292 6.87833C193.258 6.24715 194.384 5.93156 195.669 5.93156C196.908 5.93156 197.984 6.21673 198.897 6.78707C199.817 7.34981 200.528 8.12548 201.03 9.11407C201.54 10.1027 201.791 11.2319 201.783 12.5019V23.6806H195.486V13.8251C195.494 12.9582 195.273 12.2776 194.825 11.7833C194.384 11.289 193.768 11.0418 192.977 11.0418C192.46 11.0418 192.007 11.1559 191.619 11.384C191.239 11.6046 190.946 11.924 190.741 12.3422C190.536 12.7529 190.429 13.2471 190.422 13.8251Z" fill="url(#paint2_linear_237_155)"/>
<path d="M211.031 19.5285L211.077 12.0456H211.898L216.141 6.1597H223.213L216.096 15.3308H214.316L211.031 19.5285ZM205.373 23.6806V0.319392H211.67V23.6806H205.373ZM216.187 23.6806L212.172 16.7452L216.278 12.2738L223.396 23.6806H216.187Z" fill="url(#paint3_linear_237_155)"/>
<defs>
<linearGradient id="paint0_linear_237_155" x1="234.44" y1="14.3521" x2="210.143" y2="60.3366" gradientUnits="userSpaceOnUse">
<stop offset="0.00815203" stop-color="#FF9900"/>
<stop offset="1" stop-color="#7F1AFF"/>
</linearGradient>
<linearGradient id="paint1_linear_237_155" x1="234.44" y1="14.3521" x2="210.143" y2="60.3366" gradientUnits="userSpaceOnUse">
<stop offset="0.00815203" stop-color="#FF9900"/>
<stop offset="1" stop-color="#7F1AFF"/>
</linearGradient>
<linearGradient id="paint2_linear_237_155" x1="234.44" y1="14.3521" x2="210.143" y2="60.3366" gradientUnits="userSpaceOnUse">
<stop offset="0.00815203" stop-color="#FF9900"/>
<stop offset="1" stop-color="#7F1AFF"/>
</linearGradient>
<linearGradient id="paint3_linear_237_155" x1="234.44" y1="14.3521" x2="210.143" y2="60.3366" gradientUnits="userSpaceOnUse">
<stop offset="0.00815203" stop-color="#FF9900"/>
<stop offset="1" stop-color="#7F1AFF"/>
</linearGradient>
</defs>
</svg>
