<svg width="133" height="24" viewBox="0 0 133 24" fill="none" xmlns="http://www.w3.org/2000/svg">
<path d="M6.52851 17.2253C4.78972 17.6236 3.07115 18.022 1.3728 18.4204C-0.236253 12.7338 2.62803 7.04559 1.67608 1.35737C3.41149 0.904578 5.12108 0.452875 6.80482 0.0022583C8.42904 5.74109 5.49568 11.4832 6.52851 17.2253Z" fill="#190041"/>
<path d="M21.0092 17.2247C19.2715 17.623 17.5535 18.0214 15.8551 18.4198C14.2444 12.7332 17.1087 7.04497 16.1584 1.35675C17.8882 0.903954 19.5956 0.451705 21.2804 0C22.9097 5.74046 19.9763 11.4826 21.0092 17.2247Z" fill="#190041"/>
<path d="M14.0451 22.8033L8.61475 24V6.93699L14.0451 5.58188V22.8033Z" fill="#190041"/>
<path d="M37.2432 17.8484V13.0262H31.1959V17.8484H28.8745V5.92053H31.1959V10.9469H37.2432V5.92053H39.5471V17.8484H37.2432Z" fill="#190041"/>
<path d="M48.4476 9.42726H50.5056V17.8278H48.4827L48.3774 16.601C47.8838 17.5896 46.53 18.066 45.5644 18.083C42.9952 18.1 41.0972 16.5707 41.0972 13.62C41.0972 10.7221 43.083 9.20609 45.6171 9.2231C46.7778 9.2231 47.8838 9.7505 48.3774 10.586L48.4476 9.42726ZM43.243 13.62C43.243 15.2211 44.3861 16.1757 45.8102 16.1757C49.1869 16.1757 49.1869 11.0718 45.8102 11.0718C44.3861 11.0794 43.243 12.017 43.243 13.62Z" fill="#190041"/>
<path d="M59.9449 16.7595C59.5138 17.1935 58.9938 17.5354 58.4184 17.7632C57.8429 17.9911 57.2247 18.0999 56.6033 18.0827C54.0888 18.0827 51.9956 16.6177 51.9956 13.6367C51.9956 10.6557 54.0888 9.18878 56.6033 9.18878C57.1847 9.17073 57.7634 9.27225 58.3014 9.48664C58.8394 9.70103 59.3244 10.0234 59.7245 10.4326L58.3707 11.8125C57.8933 11.392 57.2737 11.1554 56.6286 11.1471C55.187 11.1471 54.1317 12.1698 54.1317 13.6367C54.1317 15.2378 55.2573 16.0941 56.5935 16.0941C56.9424 16.1069 57.2905 16.0516 57.6169 15.9314C57.9433 15.8113 58.2414 15.6287 58.4936 15.3947L59.9449 16.7595Z" fill="#190041"/>
<path d="M62.9852 5.91931V12.8038L65.9113 9.42962H68.4785V9.54303L64.9379 13.3823L68.9642 17.6714V17.8245H66.3795L62.9852 14.025V17.8245H60.8394V5.91553L62.9852 5.91931Z" fill="#190041"/>
<path d="M75.7288 17.8317V13.3252C75.7288 12.2175 75.1299 11.2119 73.9517 11.2119C72.7734 11.2119 72.1063 12.2175 72.1063 13.3252V17.8242H69.9604V9.41417H71.9483L72.1063 10.4368C72.5628 9.5843 73.5654 9.27808 74.3926 9.27808C75.4284 9.27808 76.4662 9.68638 76.9597 10.8451C77.74 9.65235 78.7349 9.3121 79.8605 9.3121C82.3224 9.3121 83.5357 10.7771 83.5357 13.2988V17.8355H81.386V13.2988C81.386 12.191 80.9081 11.2459 79.7474 11.2459C78.5867 11.2459 77.8746 12.2251 77.8746 13.3252V17.8242L75.7288 17.8317Z" fill="#190041"/>
<path d="M92.5804 9.42726H94.6482V17.8278H92.6155L92.5102 16.601C92.0186 17.5896 90.6648 18.066 89.6972 18.083C87.13 18.1 85.23 16.5707 85.23 13.62C85.23 10.7221 87.2178 9.20609 89.7499 9.2231C90.9203 9.2231 92.0186 9.7505 92.5102 10.586L92.5804 9.42726ZM87.3758 13.62C87.3758 15.2211 88.519 16.1757 89.943 16.1757C93.3198 16.1757 93.3198 11.0718 89.943 11.0718C88.519 11.0794 87.3758 12.017 87.3758 13.62Z" fill="#190041"/>
<path d="M102.22 17.8317V13.3252C102.22 12.2175 101.623 11.2119 100.445 11.2119C99.2666 11.2119 98.5975 12.2175 98.5975 13.3252V17.8242H96.4517V9.41417H98.4395L98.5975 10.4368C99.054 9.5843 100.057 9.27808 100.884 9.27808C101.922 9.27808 102.959 9.68638 103.451 10.8451C104.231 9.65235 105.228 9.3121 106.354 9.3121C108.816 9.3121 110.029 10.7771 110.029 13.2988V17.8355H107.883V13.2988C107.883 12.191 107.407 11.2534 106.248 11.2534C105.09 11.2534 104.366 12.2251 104.366 13.3328V17.8317H102.22Z" fill="#190041"/>
<path d="M114.35 5.92029V10.5723C114.86 9.7028 116.284 9.22645 117.199 9.22645C119.734 9.22645 121.613 10.7255 121.613 13.6233C121.613 16.3832 119.695 18.0183 117.146 18.0183C116.09 18.0183 115.018 17.678 114.35 16.6724L114.21 17.8311H112.205V5.92218L114.35 5.92029ZM114.491 13.6233C114.478 13.9482 114.534 14.2721 114.656 14.5751C114.777 14.8781 114.961 15.1538 115.197 15.3853C115.433 15.6167 115.715 15.799 116.026 15.9209C116.337 16.0428 116.67 16.1017 117.005 16.094C118.371 16.094 119.467 15.0883 119.467 13.6233C119.467 12.1111 118.377 11.1659 117.005 11.1659C116.672 11.1607 116.341 11.2209 116.032 11.3428C115.723 11.4647 115.443 11.6459 115.208 11.8754C114.973 12.1049 114.788 12.3781 114.665 12.6784C114.542 12.9788 114.483 13.3002 114.491 13.6233Z" fill="#190041"/>
<path d="M130.073 9.42726H132.129V17.8278H130.108L130.002 16.601C129.509 17.5896 128.155 18.066 127.187 18.083C124.62 18.1 122.72 16.5707 122.72 13.62C122.72 10.7221 124.708 9.20609 127.24 9.2231C128.401 9.2231 129.509 9.7505 130.002 10.586L130.073 9.42726ZM124.866 13.62C124.866 15.2211 126.009 16.1757 127.433 16.1757C130.81 16.1757 130.81 11.0718 127.433 11.0718C126.009 11.0794 124.866 12.017 124.866 13.62Z" fill="#190041"/>
</svg>
