<svg width="28" height="28" viewBox="0 0 28 28" fill="none" xmlns="http://www.w3.org/2000/svg">
<rect width="28" height="28" rx="6" fill="#333333"/>
<path d="M13.2882 6.51917C13.6048 5.95 13.7632 5.66667 13.9998 5.66667C14.2365 5.66667 14.3948 5.95 14.7115 6.51917L14.7932 6.66583C14.8832 6.8275 14.9282 6.9075 14.9982 6.96083C15.069 7.01417 15.1565 7.03417 15.3315 7.07333L15.4898 7.11L15.4933 7.11079C16.106 7.24943 16.4125 7.31878 16.4857 7.55333C16.559 7.78833 16.349 8.03417 15.9298 8.52416L15.8215 8.65083L15.8159 8.65741C15.7004 8.7922 15.6419 8.86054 15.6157 8.94583C15.5893 9.03139 15.5979 9.12262 15.615 9.30372L15.6157 9.31083L15.6323 9.48C15.6957 10.1342 15.7273 10.4617 15.5365 10.6067C15.3454 10.7521 15.0581 10.6199 14.4854 10.3563L14.4807 10.3542L14.3323 10.2858L14.3202 10.2803C14.1641 10.2089 14.0843 10.1725 13.9998 10.1725C13.9153 10.1725 13.8356 10.2089 13.6794 10.2803L13.6673 10.2858L13.519 10.3542L13.5143 10.3563C12.9416 10.6199 12.6543 10.7521 12.4632 10.6067C12.2722 10.4622 12.3038 10.1367 12.3666 9.48751L12.3673 9.48L12.384 9.31083L12.3847 9.30372C12.4017 9.12262 12.4103 9.03139 12.384 8.94583C12.3578 8.86054 12.2992 8.7922 12.1838 8.6574L12.1782 8.65083L12.0698 8.52416L12.0679 8.52195C11.65 8.03343 11.4408 7.78881 11.514 7.55333C11.5872 7.31878 11.8937 7.24943 12.5063 7.11079L12.5098 7.11L12.6682 7.07333L12.6738 7.07208C12.845 7.03375 12.9314 7.01442 13.0015 6.96083C13.0715 6.9075 13.1165 6.8275 13.2065 6.66583L13.2882 6.51917Z" fill="#F9F8F6"/>
<path d="M5.6665 22.3333C5.6665 21.1542 5.6665 20.565 6.03317 20.2C6.399 19.8333 6.98734 19.8333 8.1665 19.8333C9.34567 19.8333 9.93484 19.8333 10.2998 20.2C10.6665 20.5658 10.6665 21.155 10.6665 22.3333V14.8333C10.6665 13.6542 10.6665 13.065 11.0332 12.7C11.399 12.3333 11.9882 12.3333 13.1665 12.3333H14.8332C16.0123 12.3333 16.6015 12.3333 16.9665 12.7C17.3332 13.0658 17.3332 13.655 17.3332 14.8333V22.3333V19.8333C17.3332 18.6542 17.3332 18.065 17.6998 17.7C18.0657 17.3333 18.654 17.3333 19.8332 17.3333C21.0123 17.3333 21.6015 17.3333 21.9665 17.7C22.3332 18.0658 22.3332 18.655 22.3332 19.8333V22.3333M15.4898 7.11L15.3315 7.07333C15.1565 7.03417 15.069 7.01417 14.9982 6.96083C14.9282 6.9075 14.8832 6.8275 14.7932 6.66583L14.7115 6.51917C14.3948 5.95 14.2365 5.66667 13.9998 5.66667C13.7632 5.66667 13.6048 5.95 13.2882 6.51917L13.2065 6.66583C13.1165 6.8275 13.0715 6.9075 13.0015 6.96083C12.9314 7.01442 12.845 7.03375 12.6738 7.07208M15.4898 7.11L15.4933 7.11079M15.4898 7.11C15.491 7.11026 15.4922 7.11053 15.4933 7.11079M15.8215 8.65083L15.9298 8.52416C16.349 8.03417 16.559 7.78833 16.4857 7.55333C16.4125 7.31878 16.106 7.24943 15.4933 7.11079M15.8215 8.65083L15.8159 8.65741M15.8215 8.65083C15.8196 8.65304 15.8177 8.65524 15.8159 8.65741M15.6157 9.31083L15.6323 9.48C15.6957 10.1342 15.7273 10.4617 15.5365 10.6067C15.3454 10.7521 15.0581 10.6199 14.4854 10.3563M15.6157 9.31083L15.615 9.30372M15.6157 9.31083C15.6154 9.30845 15.6152 9.30607 15.615 9.30372M14.4807 10.3542L14.3323 10.2858M14.4807 10.3542L14.4854 10.3563M14.4807 10.3542C14.4822 10.3549 14.4838 10.3556 14.4854 10.3563M14.3323 10.2858L14.3202 10.2803M14.3323 10.2858C14.3282 10.284 14.3242 10.2821 14.3202 10.2803M13.6673 10.2858L13.519 10.3542M13.6673 10.2858L13.6794 10.2803M13.6673 10.2858C13.6714 10.284 13.6755 10.2821 13.6794 10.2803M13.519 10.3542L13.5143 10.3563M13.519 10.3542C13.5174 10.3549 13.5159 10.3556 13.5143 10.3563M12.3673 9.48L12.384 9.31083M12.3673 9.48L12.3666 9.48751M12.3673 9.48C12.3671 9.48251 12.3669 9.48501 12.3666 9.48751M12.384 9.31083L12.3847 9.30372M12.384 9.31083C12.3842 9.30845 12.3844 9.30607 12.3847 9.30372M12.1782 8.65083L12.0698 8.52416L12.0679 8.52195C11.65 8.03343 11.4408 7.78881 11.514 7.55333C11.5872 7.31878 11.8937 7.24943 12.5063 7.11079M12.1782 8.65083L12.1838 8.6574M12.1782 8.65083C12.1801 8.65304 12.1819 8.65523 12.1838 8.6574M12.5098 7.11L12.6682 7.07333M12.5098 7.11L12.5063 7.11079M12.5098 7.11C12.5087 7.11026 12.5075 7.11053 12.5063 7.11079M12.6682 7.07333L12.6738 7.07208M12.6682 7.07333C12.67 7.07291 12.6719 7.0725 12.6738 7.07208M15.8159 8.65741C15.7004 8.7922 15.6419 8.86054 15.6157 8.94583C15.5893 9.03139 15.5979 9.12262 15.615 9.30372M14.3202 10.2803C14.1641 10.2089 14.0843 10.1725 13.9998 10.1725C13.9153 10.1725 13.8356 10.2089 13.6794 10.2803M13.5143 10.3563C12.9416 10.6199 12.6543 10.7521 12.4632 10.6067C12.2722 10.4622 12.3038 10.1367 12.3666 9.48751M12.3847 9.30372C12.4017 9.12262 12.4103 9.03139 12.384 8.94583C12.3578 8.86054 12.2992 8.7922 12.1838 8.6574" stroke="#F9F8F6" stroke-linecap="round"/>
</svg>
